<svg width="114" height="30" viewBox="0 0 114 30" fill="none" xmlns="http://www.w3.org/2000/svg">
<path d="M0 21.438H8.28288V23.9469H5.90669V29.9764H2.45526V23.9469H0V21.438Z" fill="white"/>
<path d="M12.4777 24.8879L10.7338 29.9764H7.41925L10.6701 21.438H14.2698L17.5989 29.9764H14.2436L12.4777 24.8879Z" fill="white"/>
<path d="M16.8071 21.438H25.0897V23.9469H22.7142V29.9764H19.263V23.9469H16.8071V21.438Z" fill="white"/>
<path d="M29.286 24.8879L27.5414 29.9764H24.2269L27.4788 21.438H31.0774L34.4054 29.9764H31.0513L29.286 24.8879Z" fill="white"/>
<path fill-rule="evenodd" clip-rule="evenodd" d="M29.4082 5.75471C29.0989 5.14937 28.6916 4.56917 28.1849 4.02509C27.0462 2.80182 25.4397 1.78391 23.5385 1.08185C21.6216 0.374355 19.4353 0 17.2135 0C14.9917 0 12.8053 0.374355 10.8894 1.08185C8.98724 1.78399 7.38061 2.8019 6.24196 4.02509C5.7356 4.56909 5.32697 5.1501 5.01779 5.75577C7.49294 5.16 11.7268 4.3734 15.658 4.29023C16.0372 4.28212 16.2983 4.40301 16.4702 4.61988C16.6796 4.88398 16.6639 5.82538 16.6588 6.24655L16.547 17.1324C16.7684 17.1397 16.9909 17.1444 17.2135 17.1444C17.438 17.1444 17.6616 17.1407 17.883 17.1334L17.7713 6.24647C17.7655 5.82538 17.7493 4.8839 17.9594 4.6198C18.1317 4.40301 18.3919 4.28212 18.771 4.29015C22.7006 4.37267 26.9335 5.15943 29.4082 5.75471Z" fill="white"/>
<path fill-rule="evenodd" clip-rule="evenodd" d="M29.9366 7.17035C26.314 6.35519 23.8948 6.20444 21.5078 6.0726C19.427 5.95747 19.3999 6.69701 19.6076 8.11029C19.6212 8.19654 19.6379 8.30526 19.6577 8.42923C20.3556 12.5437 21.2247 16.0844 21.3741 16.6854C26.4466 15.5313 30.1049 12.3314 30.1049 8.57243C30.1049 8.0991 30.0474 7.63014 29.9366 7.17035Z" fill="white"/>
<path fill-rule="evenodd" clip-rule="evenodd" d="M14.8213 8.11029C15.0292 6.69709 15.0026 5.95747 12.9221 6.0726C10.5343 6.20444 8.11448 6.35511 4.49048 7.17084C4.37979 7.63063 4.32159 8.09902 4.32159 8.57235C4.32159 10.197 4.98559 11.7691 6.24204 13.1197C7.3807 14.343 8.98732 15.3609 10.8895 16.0634C11.578 16.3171 12.3045 16.5251 13.0529 16.6914C13.1933 16.1284 14.0824 12.514 14.7879 8.32595C14.8009 8.24571 14.813 8.17163 14.8213 8.11029Z" fill="white"/>
<path fill-rule="evenodd" clip-rule="evenodd" d="M89.0768 3.00781L87.5533 7.47396H84.6365L87.4882 0H90.6394L93.4911 7.47396H90.6004L89.0768 3.00781ZM85.3657 2.16146V0.0130209H78.1518V2.16146H80.2613V7.47396H83.2432V2.16146H85.3657ZM74.4277 3.00781L72.9041 7.47396H69.9873L72.839 0H75.9902L78.8419 7.47396H75.9251L74.4277 3.00781ZM111.526 18.6849V15.5339L114 11.2109H112.463L111.565 13.125C111.305 13.6719 111.109 14.1276 110.914 14.6094H110.888C110.68 14.1016 110.484 13.6849 110.237 13.125L109.351 11.2109H107.789L110.146 15.5729V18.6849H111.526ZM107.086 17.3828C106.721 17.5391 106.148 17.6562 105.601 17.6562C103.96 17.6562 102.997 16.6146 102.997 14.974C102.997 13.1771 104.091 12.2266 105.614 12.2266C106.226 12.2266 106.721 12.3568 107.073 12.513L107.372 11.4323C107.099 11.2891 106.461 11.1068 105.562 11.1068C103.283 11.1068 101.564 12.5911 101.564 15.0521C101.564 17.3307 103.01 18.8151 105.38 18.8151C106.278 18.8151 106.994 18.6328 107.32 18.4766L107.086 17.3828ZM95.7178 18.6849V16.0026C95.7178 14.7786 95.7048 13.7891 95.6397 12.8255L95.6787 12.8125C96.0433 13.6589 96.5382 14.5703 97.02 15.3906L98.9732 18.6719H100.38V11.2109H99.1164V13.8151C99.1164 14.9609 99.1425 15.9245 99.2336 16.9141L99.2076 16.9271C98.856 16.1198 98.4263 15.2474 97.9315 14.4271L96.0043 11.224H94.4417V18.6979L95.7178 18.6849ZM89.1289 15.5339L89.7019 13.6849C89.8321 13.2422 89.9493 12.7214 90.0535 12.2917H90.0795C90.1967 12.7214 90.3139 13.2292 90.4571 13.6979L91.0431 15.5339H89.1289ZM91.2775 16.5755L91.9546 18.6849H93.413L90.991 11.2109H89.2591L86.8632 18.6849H88.2695L88.9076 16.5755H91.2775ZM83.8292 18.6849H85.1964V12.3568H87.345V11.2109H81.6937V12.3568H83.8292V18.6849ZM78.0216 18.6849H82.4619V17.5391H79.3888V11.2109H78.0216V18.6849ZM70.6384 11.2109V15.4818C70.6384 17.8255 71.7583 18.8021 73.4901 18.8021C75.3001 18.8021 76.472 17.7734 76.472 15.4818V11.2109H75.1048V15.5599C75.1048 17.0182 74.5188 17.6953 73.5292 17.6953C72.6046 17.6953 71.9926 17.0182 71.9926 15.5599V11.2109H70.6384ZM64.5574 18.3203C64.961 18.5677 65.7814 18.8021 66.5757 18.8021C68.5029 18.8021 69.4144 17.7604 69.4144 16.5625C69.4144 15.4948 68.7894 14.8307 67.4872 14.349C66.4845 13.9714 66.0548 13.6979 66.0548 13.125C66.0548 12.6823 66.4194 12.2266 67.2919 12.2266C67.995 12.2266 68.5159 12.4349 68.7893 12.5781L69.1149 11.4714C68.7242 11.276 68.1383 11.1068 67.3179 11.1068C65.7033 11.1068 64.6746 12.0313 64.6746 13.2552C64.6746 14.3229 65.4689 14.987 66.6929 15.4297C67.6304 15.7682 68.0211 16.1068 68.0211 16.6667C68.0211 17.2786 67.5393 17.6823 66.6668 17.6823C65.9767 17.6823 65.2996 17.4609 64.8569 17.2005L64.5574 18.3203ZM58.6586 18.6849V16.0026C58.6586 14.7786 58.6456 13.7891 58.5805 12.8255L58.6196 12.8125C58.9842 13.6589 59.479 14.5703 59.9608 15.3906L61.914 18.6719H63.3203V11.2109H62.0572V13.8151C62.0572 14.9609 62.0833 15.9245 62.1744 16.9141L62.1484 16.9271C61.7968 16.1198 61.3671 15.2474 60.8723 14.4271L58.9581 11.2109H57.3955V18.6849H58.6586ZM52.7078 17.7083C51.4056 17.7083 50.6374 16.4583 50.6504 14.974C50.6504 13.4896 51.3666 12.1875 52.7338 12.1875C54.1011 12.1875 54.7912 13.5156 54.7912 14.9219C54.7782 16.4844 54.036 17.7083 52.7078 17.7083ZM52.6687 18.8021C54.7131 18.8021 56.2366 17.3698 56.2366 14.8698C56.2366 12.7344 54.9475 11.0938 52.7729 11.0938C50.6634 11.0938 49.218 12.7083 49.218 15.013C49.205 17.1875 50.5462 18.8021 52.6687 18.8021ZM48.5279 17.3828C48.1633 17.5391 47.5904 17.6562 47.0434 17.6562C45.4027 17.6562 44.4391 16.6146 44.4391 14.974C44.4391 13.1771 45.533 12.2266 47.0565 12.2266C47.6685 12.2266 48.1633 12.3568 48.5149 12.513L48.8144 11.4323C48.5409 11.2891 47.9029 11.1068 47.0044 11.1068C44.7256 11.1068 43.0068 12.5911 43.0068 15.0521C43.0068 17.3307 44.4522 18.8151 46.8221 18.8151C47.7206 18.8151 48.4367 18.6328 48.7623 18.4766L48.5279 17.3828ZM69.4014 23.5026C69.5446 23.4635 69.818 23.4375 70.2478 23.4375C71.1202 23.4375 71.6931 23.8151 71.6931 24.6224C71.6931 25.3646 71.1332 25.8464 70.2087 25.8464H69.4144V23.5026H69.4014ZM69.4014 29.8828V26.8359H70.0785C70.8467 26.849 71.1983 27.1615 71.4067 28.138C71.615 29.0625 71.7973 29.6745 71.9015 29.8828H73.2948C73.1516 29.5964 72.9432 28.737 72.7088 27.8125C72.5265 27.0964 72.214 26.5885 71.6801 26.3802V26.3542C72.3833 26.1068 73.0213 25.4557 73.0213 24.5052C73.0213 23.8672 72.7869 23.3594 72.3833 23.0208C71.8885 22.6042 71.1593 22.4219 70.0915 22.4219C69.3102 22.4219 68.555 22.487 68.0341 22.5781V29.8828H69.4014ZM56.2757 29.5182C56.6794 29.7656 57.4997 30 58.294 30C60.2212 30 61.1327 28.9583 61.1327 27.7604C61.1327 26.6927 60.5077 26.0286 59.2055 25.5469C58.2029 25.1693 57.7732 24.8958 57.7732 24.3229C57.7732 23.8802 58.1378 23.4245 59.0102 23.4245C59.7134 23.4245 60.2342 23.6328 60.5077 23.776L60.8332 22.6693C60.4426 22.474 59.8566 22.3047 59.0362 22.3047C57.4216 22.3047 56.3929 23.2292 56.3929 24.4531C56.3929 25.5208 57.1872 26.1849 58.4112 26.6276C59.3488 26.9661 59.7394 27.3047 59.7394 27.8646C59.7394 28.4766 59.2576 28.8802 58.3852 28.8802C57.695 28.8802 57.0179 28.6589 56.5752 28.3984L56.2757 29.5182ZM66.5236 25.4557H63.711V23.5417H66.6929V22.4219H62.3437V29.8958H66.8491V28.763H63.6979V26.5755H66.5106V25.4557H66.5236ZM77.683 29.8828L80.2613 22.4089H78.8159L77.7221 25.8203C77.4356 26.7318 77.1622 27.6432 76.9668 28.5156H76.9408C76.7455 27.6172 76.4981 26.7448 76.2116 25.7943L75.1959 22.3958H73.7115L76.1335 29.8698H77.683V29.8828ZM81.0686 22.4089V29.8828H82.4359V22.4089H81.0686ZM89.1289 28.5807C88.7643 28.737 88.1914 28.8542 87.6445 28.8542C86.0038 28.8542 85.0402 27.8125 85.0402 26.1589C85.0402 24.362 86.134 23.4115 87.6575 23.4115C88.2695 23.4115 88.7643 23.5417 89.1159 23.6979L89.4154 22.6172C89.142 22.474 88.5039 22.2917 87.6054 22.2917C85.3267 22.2917 83.6078 23.776 83.6078 26.237C83.6078 28.5156 85.0532 30 87.4231 30C88.3216 30 89.0378 29.8177 89.3633 29.6615L89.1289 28.5807ZM94.6891 25.4557H91.8765V23.5417H94.8584V22.4219H90.5092V29.8958H95.0146V28.763H91.8634V26.5755H94.6761V25.4557H94.6891ZM95.8871 29.5182C96.2908 29.7656 97.1111 30 97.9054 30C99.8326 30 100.744 28.9583 100.744 27.7604C100.744 26.6927 100.119 26.0286 98.8169 25.5469C97.8143 25.1693 97.3846 24.8958 97.3846 24.3229C97.3846 23.8802 97.7492 23.4245 98.6216 23.4245C99.3248 23.4245 99.8456 23.6328 100.119 23.776L100.445 22.6693C100.054 22.474 99.468 22.3047 98.6476 22.3047C97.033 22.3047 96.0043 23.2292 96.0043 24.4531C96.0043 25.5208 96.7986 26.1849 98.0226 26.6276C98.9602 26.9661 99.3508 27.3047 99.3508 27.8646C99.3508 28.4766 98.869 28.8802 97.9966 28.8802C97.3064 28.8802 96.6293 28.6589 96.1866 28.3984L95.8871 29.5182ZM70.7165 2.16146V0.0130209H63.5026V2.16146H65.6121V7.47396H68.594V2.16146H70.7165Z" fill="white"/>
</svg>
